<svg xmlns="http://www.w3.org/2000/svg" viewBox="0 16.5 91.3499984741211 27.75" data-asc="0.881" width="91.3499984741211" height="27.75"><defs/><g fill="#000000"><g transform="translate(0, 0)"><path d="M12.80 44.25Q9.15 44.25 6.25 42.42Q3.35 40.60 1.68 37.47Q0 34.35 0 30.40Q0 26.45 1.83 23.30Q3.65 20.15 6.78 18.32Q9.90 16.50 13.80 16.50Q17.70 16.50 20.80 18.32Q23.90 20.15 25.73 23.30Q27.55 26.45 27.55 30.40L25.60 30.40Q25.60 34.35 23.93 37.47Q22.25 40.60 19.35 42.42Q16.45 44.25 12.80 44.25M13.80 39.75Q16.35 39.75 18.35 38.52Q20.35 37.30 21.50 35.17Q22.65 33.05 22.65 30.40Q22.65 27.70 21.50 25.57Q20.35 23.45 18.35 22.22Q16.35 21.00 13.80 21.00Q11.30 21.00 9.28 22.22Q7.25 23.45 6.08 25.57Q4.90 27.70 4.90 30.40Q4.90 33.05 6.08 35.17Q7.25 37.30 9.28 38.52Q11.30 39.75 13.80 39.75M25 44.10Q23.90 44.10 23.18 43.38Q22.45 42.65 22.45 41.55L22.45 33.90L23.40 28.60L27.55 30.40L27.55 41.55Q27.55 42.65 26.82 43.38Q26.10 44.10 25 44.10ZM48 44.25Q43.85 44.25 40.63 42.47Q37.40 40.70 35.58 37.57Q33.75 34.45 33.75 30.40Q33.75 26.30 35.48 23.17Q37.20 20.05 40.25 18.27Q43.30 16.50 47.25 16.50Q51.15 16.50 53.95 18.22Q56.75 19.95 58.23 22.97Q59.70 26.00 59.70 29.95Q59.70 30.90 59.05 31.52Q58.40 32.15 57.40 32.15L37.25 32.15L37.25 28.15L57.25 28.15L55.20 29.55Q55.15 27.05 54.20 25.07Q53.25 23.10 51.50 21.95Q49.75 20.80 47.25 20.80Q44.40 20.80 42.38 22.05Q40.35 23.30 39.30 25.47Q38.25 27.65 38.25 30.40Q38.25 33.15 39.50 35.30Q40.75 37.45 42.95 38.70Q45.15 39.95 48 39.95Q49.55 39.95 51.17 39.38Q52.80 38.80 53.80 38.05Q54.55 37.50 55.42 37.47Q56.30 37.45 56.95 38Q57.80 38.75 57.85 39.65Q57.90 40.55 57.05 41.20Q55.35 42.55 52.83 43.40Q50.30 44.25 48 44.25ZM76.60 44.25Q72.95 44.25 70.05 42.42Q67.15 40.60 65.48 37.47Q63.80 34.35 63.80 30.40Q63.80 26.45 65.63 23.30Q67.45 20.15 70.58 18.32Q73.70 16.50 77.60 16.50Q81.50 16.50 84.60 18.32Q87.70 20.15 89.53 23.30Q91.35 26.45 91.35 30.40L89.40 30.40Q89.40 34.35 87.73 37.47Q86.05 40.60 83.15 42.42Q80.25 44.25 76.60 44.25M77.60 39.75Q80.15 39.75 82.15 38.52Q84.15 37.30 85.30 35.17Q86.45 33.05 86.45 30.40Q86.45 27.70 85.30 25.57Q84.15 23.45 82.15 22.22Q80.15 21.00 77.60 21.00Q75.10 21.00 73.08 22.22Q71.05 23.45 69.88 25.57Q68.70 27.70 68.70 30.40Q68.70 33.05 69.88 35.17Q71.05 37.30 73.08 38.52Q75.10 39.75 77.60 39.75M88.80 44.10Q87.70 44.10 86.98 43.38Q86.25 42.65 86.25 41.55L86.25 33.90L87.20 28.60L91.35 30.40L91.35 41.55Q91.35 42.65 90.63 43.38Q89.90 44.10 88.80 44.10Z"/></g></g></svg>